# File created by Blade
# Date/Time:  Tue Apr 07 20:35:32 2015
# Frame Rate: 120.000 fps
#------------------------------------------------------
:FULLY-SPECIFIED
:DEGREES
2006
root 2.761202 32.787024 -5.920251 54.612627 5.434341 -4.501097
Spine -32.023006 -3.651049 9.797044
Head -15.237765 0.956647 4.922561
LeftShoulder -20.527091 38.257606 24.485106
LeftArm 63.687126 -60.315783 -71.230581
LeftForeArm 6.192981 -0.000000 12.112869
LeftHand 11.924225 -0.000000 12.368542
LeftHandThumb1 -26.253704 0.000000 33.147579
RightShoulder -12.630324 -8.043019 -22.369616
RightArm 2.531903 -4.795857 68.259735
RightForeArm 10.361442 -0.000000 32.606306
RightHand 6.116011 0.000000 7.542630
RightHandThumb1 -24.326973 -0.000000 -32.862282
LeftUpLeg -58.153976 -9.453770 8.676754
LeftLeg 4.087658 -0.000000 -0.000000
LeftFoot -9.835808 14.328744 -9.447066
LeftToeBase -8.742836 -0.000000 0.000000
RightUpLeg 0.696831 7.017619 -12.641405
RightLeg 78.903367 -0.000000 -0.000000
RightFoot 43.724324 -0.587272 -4.420535
RightToeBase 35.147240 -0.000000 -0.000000
2007
root 2.755386 32.803889 -5.919085 54.572953 5.207331 -4.482703
Spine -32.170795 -3.569283 9.643071
Head -14.826478 1.100306 4.670378
LeftShoulder -20.616813 38.168967 24.391814
LeftArm 63.360710 -60.075045 -70.946832
LeftForeArm 6.877118 0.000000 12.079312
LeftHand 11.828734 -0.000000 11.763336
LeftHandThumb1 -26.253704 0.000000 33.147579
RightShoulder -12.474681 -7.963556 -22.650036
RightArm 2.541246 -5.149350 68.175488
RightForeArm 9.995345 0.000000 32.317380
RightHand 6.197858 -0.000000 6.956928
RightHandThumb1 -24.326973 -0.000000 -32.862282
LeftUpLeg -57.800158 -9.377237 8.592120
LeftLeg 3.535068 -0.000000 -0.000000
LeftFoot -9.840235 14.332109 -9.815119
LeftToeBase -8.672084 -0.000000 0.000000
RightUpLeg 0.931134 6.666520 -12.780406
RightLeg 78.418951 -0.000000 -0.000000
RightFoot 43.751838 -0.885986 -4.420286
RightToeBase 34.997546 -0.000000 -0.000000
2008
root 2.750698 32.819968 -5.916717 54.549146 4.983139 -4.520795
Spine -32.299669 -3.391942 9.522080
Head -14.559141 1.212442 4.422890
LeftShoulder -20.654818 38.040173 24.309656
LeftArm 63.033805 -59.947987 -70.794635
LeftForeArm 7.525572 0.000000 12.185222
LeftHand 11.783643 -0.000000 11.338212
LeftHandThumb1 -26.253704 0.000000 33.147579
RightShoulder -12.414370 -7.886154 -22.924509
RightArm 2.571878 -5.384399 68.060317
RightForeArm 9.939786 0.000000 32.022451
RightHand 6.047410 -0.000000 7.226512
RightHandThumb1 -24.326973 -0.000000 -32.862282
LeftUpLeg -57.506547 -9.397678 8.716798
LeftLeg 3.019008 -0.000000 -0.000000
LeftFoot -10.013155 14.571532 -10.167244
LeftToeBase -8.645862 -0.000000 0.000000
RightUpLeg 1.174329 6.335202 -12.909281
RightLeg 77.920805 -0.000000 -0.000000
RightFoot 43.749558 -1.118895 -4.442196
RightToeBase 35.061636 -0.000000 -0.000000
2009
root 2.745840 32.834508 -5.916352 54.493477 4.796229 -4.622568
Spine -32.349049 -3.187140 9.502507
Head -14.455324 1.378664 4.133630
LeftShoulder -20.759640 37.941582 24.126297
LeftArm 62.686111 -59.868673 -70.626130
LeftForeArm 8.102823 0.000000 12.336515
LeftHand 11.727325 -0.000000 11.567310
LeftHandThumb1 -26.253704 0.000000 33.147579
RightShoulder -12.356492 -7.747768 -23.184051
RightArm 2.593247 -5.518923 67.892962
RightForeArm 10.024481 -0.000000 31.730762
RightHand 6.048253 -0.000000 7.127633
RightHandThumb1 -24.326973 -0.000000 -32.862282
LeftUpLeg -57.263775 -9.440524 8.947362
LeftLeg 2.652130 -0.000000 -0.000000
LeftFoot -10.238932 14.824311 -10.298740
LeftToeBase -8.508086 -0.000000 0.000000
RightUpLeg 1.461796 6.013676 -12.985880
RightLeg 77.430823 -0.000000 -0.000000
RightFoot 43.768564 -1.187488 -4.493942
RightToeBase 34.844242 -0.000000 -0.000000
2010
root 2.741906 32.847102 -5.919395 54.419900 4.609856 -4.785470
Spine -32.340165 -2.957657 9.536805
Head -14.434927 1.536396 3.893312
LeftShoulder -20.958029 37.964375 23.855957
LeftArm 62.573209 -59.900015 -70.745813
LeftForeArm 8.491675 -0.000000 12.582821
LeftHand 11.793844 -0.000000 11.986898
LeftHandThumb1 -26.253704 0.000000 33.147579
RightShoulder -12.272640 -7.561277 -23.425377
RightArm 2.652808 -5.533401 67.699783
RightForeArm 10.098143 -0.000000 31.371420
RightHand 5.999828 -0.000000 6.847594
RightHandThumb1 -24.326973 -0.000000 -32.862282
LeftUpLeg -57.055002 -9.577974 9.382690
LeftLeg 2.353539 -0.000000 -0.000000
LeftFoot -10.488066 15.085395 -10.343188
LeftToeBase -8.515890 -0.000000 0.000000
RightUpLeg 1.766565 5.725923 -13.041496
RightLeg 76.962493 -0.000000 -0.000000
RightFoot 43.739790 -1.340028 -4.412005
RightToeBase 34.831491 -0.000000 -0.000000
2011
root 2.739537 32.856761 -5.923473 54.318786 4.383778 -4.982368
Spine -32.270098 -2.661070 9.528543
Head -14.501685 1.664173 3.761736
LeftShoulder -21.200740 38.068241 23.541023
LeftArm 62.736107 -60.025428 -71.166664
LeftForeArm 8.806970 -0.000000 12.927818
LeftHand 11.761201 -0.000000 12.451892
LeftHandThumb1 -26.253704 0.000000 33.147579
RightShoulder -12.198213 -7.334041 -23.622932
RightArm 2.731343 -5.357840 67.457894
RightForeArm 10.241102 -0.000000 30.888496
RightHand 6.195921 -0.000000 6.647955
RightHandThumb1 -24.326973 -0.000000 -32.862282
LeftUpLeg -56.866919 -9.694626 9.808130
LeftLeg 2.188340 -0.000000 -0.000000
LeftFoot -10.887578 15.133266 -10.402911
LeftToeBase -8.211554 -0.000000 0.000000
RightUpLeg 2.112236 5.467028 -13.127226
RightLeg 76.486816 -0.000000 -0.000000
RightFoot 43.790377 -1.546831 -4.313172
RightToeBase 34.862304 -0.000000 -0.000000
2012
root 2.738595 32.866926 -5.930944 54.223223 4.141518 -5.222404
Spine -32.164269 -2.305983 9.516429
Head -14.624216 1.811642 3.668798
LeftShoulder -21.397872 38.151854 23.280459
LeftArm 62.711782 -60.226269 -71.528894
LeftForeArm 8.914205 -0.000000 13.418230
LeftHand 11.863645 -0.000000 12.981599
LeftHandThumb1 -26.253704 0.000000 33.147579
RightShoulder -12.075413 -7.136481 -23.754859
RightArm 2.788617 -4.931306 67.188777
RightForeArm 10.218947 0.000000 30.487278
RightHand 6.312964 -0.000000 6.294849
RightHandThumb1 -24.326973 -0.000000 -32.862282
LeftUpLeg -56.743046 -9.901645 10.443732
LeftLeg 2.095534 -0.000000 -0.000000
LeftFoot -11.357957 15.224979 -10.592312
LeftToeBase -7.763531 -0.000000 0.000000
RightUpLeg 2.444352 5.216582 -13.217749
RightLeg 76.033510 -0.000000 -0.000000
RightFoot 43.817000 -1.803215 -4.212576
RightToeBase 34.918325 -0.000000 -0.000000
2013
root 2.739910 32.874966 -5.936407 54.126614 3.856183 -5.473534
Spine -32.018197 -1.863559 9.405544
Head -14.854630 1.986487 3.651531
LeftShoulder -21.676284 38.342352 22.975694
LeftArm 63.124563 -60.454739 -72.278565
LeftForeArm 8.977965 -0.000000 13.891961
LeftHand 11.879048 -0.000000 13.662093
LeftHandThumb1 -26.253704 0.000000 33.147579
RightShoulder -12.012435 -6.958551 -23.784148
RightArm 2.851212 -4.481251 66.866232
RightForeArm 10.540259 -0.000000 30.100911
RightHand 6.525188 0.000000 5.279154
RightHandThumb1 -24.326973 -0.000000 -32.862282
LeftUpLeg -56.633729 -10.062842 10.985585
LeftLeg 2.070494 -0.000000 -0.000000
LeftFoot -11.660528 15.325756 -10.543568
LeftToeBase -7.779110 -0.000000 0.000000
RightUpLeg 2.799142 4.948366 -13.370316
RightLeg 75.570333 -0.000000 -0.000000
RightFoot 43.815633 -1.899912 -4.228896
RightToeBase 34.954103 -0.000000 -0.000000
2014
root 2.740210 32.882555 -5.944761 54.039932 3.564707 -5.749633
Spine -31.882115 -1.441387 9.357902
Head -15.041267 2.025094 3.752198
LeftShoulder -21.966112 38.507699 22.631588
LeftArm 63.213384 -60.754295 -72.709942
LeftForeArm 8.881070 -0.000000 14.337091
LeftHand 11.870357 0.000000 14.082126
LeftHandThumb1 -26.253704 0.000000 33.147579
RightShoulder -11.793447 -6.705260 -23.861203
RightArm 2.826727 -3.700175 66.613197
RightForeArm 10.439110 -0.000000 29.730191
RightHand 6.658789 -0.000000 4.647434
RightHandThumb1 -24.326973 -0.000000 -32.862282
LeftUpLeg -56.598613 -10.327891 11.726770
LeftLeg 2.105893 -0.000000 -0.000000
LeftFoot -12.067191 15.433880 -10.673991
LeftToeBase -7.588745 -0.000000 0.000000
RightUpLeg 3.154312 4.661244 -13.521980
RightLeg 75.132294 -0.000000 -0.000000
RightFoot 43.745645 -2.081185 -4.124795
RightToeBase 34.961362 -0.000000 -0.000000
2015
root 2.740363 32.890156 -5.952938 53.981947 3.227920 -6.019148
Spine -31.771477 -1.033670 9.254204
Head -15.228675 2.212931 3.837692
LeftShoulder -22.386213 38.761096 22.231971
LeftArm 63.500528 -61.048805 -73.234177
LeftForeArm 8.921456 0.000000 14.603178
LeftHand 12.000413 -0.000000 14.394190
LeftHandThumb1 -26.253704 0.000000 33.147579
RightShoulder -11.519774 -6.311910 -23.911962
RightArm 2.757372 -2.936419 66.332060
RightForeArm 10.468374 -0.000000 29.251443
RightHand 6.847782 -0.000000 3.664806
RightHandThumb1 -24.326973 -0.000000 -32.862282
LeftUpLeg -56.631742 -10.600097 12.468115
LeftLeg 2.208441 -0.000000 -0.000000
LeftFoot -12.366809 15.654267 -10.554237
LeftToeBase -7.712594 -0.000000 0.000000
RightUpLeg 3.503234 4.333892 -13.733432
RightLeg 74.678349 -0.000000 -0.000000
RightFoot 43.695647 -2.342427 -4.032408
RightToeBase 35.060514 -0.000000 -0.000000
2016
root 2.742550 32.898368 -5.962732 53.992094 2.883754 -6.275260
Spine -31.734281 -0.617717 9.142707
Head -15.380088 2.364201 3.992951
LeftShoulder -22.785419 38.900717 21.893469
LeftArm 63.449435 -61.342597 -73.449954
LeftForeArm 8.894511 -0.000000 14.851506
LeftHand 11.990444 -0.000000 14.525528
LeftHandThumb1 -26.253704 0.000000 33.147579
RightShoulder -11.215851 -5.950769 -23.966094
RightArm 2.740368 -2.109384 66.075809
RightForeArm 10.398531 -0.000000 28.752917
RightHand 6.767373 -0.000000 3.292407
RightHandThumb1 -24.326973 -0.000000 -32.862282
LeftUpLeg -56.795051 -10.907070 13.291513
LeftLeg 2.407994 -0.000000 -0.000000
LeftFoot -12.806291 15.823446 -10.729221
LeftToeBase -7.344714 -0.000000 0.000000
RightUpLeg 3.802360 3.953223 -13.984547
RightLeg 74.213809 -0.000000 -0.000000
RightFoot 43.699224 -2.424914 -4.040853
RightToeBase 35.044840 -0.000000 -0.000000
